<mxfile host="app.diagrams.net" modified="2024-05-17T21:48:56.774Z" agent="Mozilla/5.0 (Windows NT 10.0; Win64; x64; rv:123.0) Gecko/20100101 Firefox/123.0" etag="lelaOFDhZOq3Sj8T378U" version="24.4.4" type="onedrive">
  <diagram name="PÃ¡gina-1" id="zzYT1BB2_p786FbyGdtU">
    <mxGraphModel grid="1" page="1" gridSize="10" guides="1" tooltips="1" connect="1" arrows="1" fold="1" pageScale="1" pageWidth="827" pageHeight="1169" math="0" shadow="0">
      <root>
        <mxCell id="0" />
        <mxCell id="1" parent="0" />
        <mxCell id="xKOvJ4PTIkKJvOs1kT6k-1" value="&lt;div&gt;PEDIDO&lt;/div&gt;" style="whiteSpace=wrap;html=1;align=center;" vertex="1" parent="1">
          <mxGeometry x="314" y="200" width="100" height="40" as="geometry" />
        </mxCell>
        <mxCell id="xKOvJ4PTIkKJvOs1kT6k-12" style="edgeStyle=orthogonalEdgeStyle;rounded=0;orthogonalLoop=1;jettySize=auto;html=1;exitX=0.75;exitY=1;exitDx=0;exitDy=0;entryX=0.5;entryY=1;entryDx=0;entryDy=0;" edge="1" parent="1" source="xKOvJ4PTIkKJvOs1kT6k-2" target="xKOvJ4PTIkKJvOs1kT6k-8">
          <mxGeometry relative="1" as="geometry" />
        </mxCell>
        <mxCell id="xKOvJ4PTIkKJvOs1kT6k-2" value="PRODUCTOS" style="whiteSpace=wrap;html=1;align=center;" vertex="1" parent="1">
          <mxGeometry x="60" y="360" width="100" height="40" as="geometry" />
        </mxCell>
        <mxCell id="xKOvJ4PTIkKJvOs1kT6k-17" style="edgeStyle=orthogonalEdgeStyle;rounded=0;orthogonalLoop=1;jettySize=auto;html=1;exitX=0.5;exitY=1;exitDx=0;exitDy=0;entryX=0.5;entryY=0;entryDx=0;entryDy=0;" edge="1" parent="1" source="xKOvJ4PTIkKJvOs1kT6k-3" target="xKOvJ4PTIkKJvOs1kT6k-7">
          <mxGeometry relative="1" as="geometry" />
        </mxCell>
        <mxCell id="xKOvJ4PTIkKJvOs1kT6k-3" value="CLIENTE" style="whiteSpace=wrap;html=1;align=center;" vertex="1" parent="1">
          <mxGeometry x="60" y="20" width="100" height="40" as="geometry" />
        </mxCell>
        <mxCell id="xKOvJ4PTIkKJvOs1kT6k-22" style="edgeStyle=orthogonalEdgeStyle;rounded=0;orthogonalLoop=1;jettySize=auto;html=1;exitX=0;exitY=0.5;exitDx=0;exitDy=0;entryX=1;entryY=0.5;entryDx=0;entryDy=0;" edge="1" parent="1" source="xKOvJ4PTIkKJvOs1kT6k-4" target="xKOvJ4PTIkKJvOs1kT6k-10">
          <mxGeometry relative="1" as="geometry" />
        </mxCell>
        <mxCell id="xKOvJ4PTIkKJvOs1kT6k-4" value="CATEGORIAS" style="whiteSpace=wrap;html=1;align=center;" vertex="1" parent="1">
          <mxGeometry x="620" y="350" width="100" height="40" as="geometry" />
        </mxCell>
        <mxCell id="xKOvJ4PTIkKJvOs1kT6k-20" style="edgeStyle=orthogonalEdgeStyle;rounded=0;orthogonalLoop=1;jettySize=auto;html=1;exitX=0.5;exitY=1;exitDx=0;exitDy=0;entryX=0.5;entryY=0;entryDx=0;entryDy=0;" edge="1" parent="1" source="xKOvJ4PTIkKJvOs1kT6k-5" target="xKOvJ4PTIkKJvOs1kT6k-9">
          <mxGeometry relative="1" as="geometry" />
        </mxCell>
        <mxCell id="xKOvJ4PTIkKJvOs1kT6k-5" value="FACTURA" style="whiteSpace=wrap;html=1;align=center;" vertex="1" parent="1">
          <mxGeometry x="590" y="30" width="100" height="40" as="geometry" />
        </mxCell>
        <mxCell id="xKOvJ4PTIkKJvOs1kT6k-16" style="edgeStyle=orthogonalEdgeStyle;rounded=0;orthogonalLoop=1;jettySize=auto;html=1;exitX=0.5;exitY=1;exitDx=0;exitDy=0;entryX=0;entryY=0.5;entryDx=0;entryDy=0;" edge="1" parent="1" source="xKOvJ4PTIkKJvOs1kT6k-7" target="xKOvJ4PTIkKJvOs1kT6k-1">
          <mxGeometry relative="1" as="geometry" />
        </mxCell>
        <mxCell id="xKOvJ4PTIkKJvOs1kT6k-7" value="&lt;font style=&quot;font-size: 9px;&quot;&gt;REALIZA&lt;/font&gt;" style="shape=rhombus;perimeter=rhombusPerimeter;whiteSpace=wrap;html=1;align=center;" vertex="1" parent="1">
          <mxGeometry x="150" y="180" width="60" height="30" as="geometry" />
        </mxCell>
        <mxCell id="xKOvJ4PTIkKJvOs1kT6k-13" style="edgeStyle=orthogonalEdgeStyle;rounded=0;orthogonalLoop=1;jettySize=auto;html=1;exitX=0.5;exitY=0;exitDx=0;exitDy=0;entryX=0.5;entryY=1;entryDx=0;entryDy=0;" edge="1" parent="1" source="xKOvJ4PTIkKJvOs1kT6k-8" target="xKOvJ4PTIkKJvOs1kT6k-1">
          <mxGeometry relative="1" as="geometry">
            <Array as="points">
              <mxPoint x="243" y="280" />
              <mxPoint x="320" y="280" />
              <mxPoint x="320" y="250" />
            </Array>
          </mxGeometry>
        </mxCell>
        <mxCell id="xKOvJ4PTIkKJvOs1kT6k-8" value="&lt;font style=&quot;font-size: 10px;&quot;&gt;CARRITO&lt;/font&gt;" style="shape=rhombus;perimeter=rhombusPerimeter;whiteSpace=wrap;html=1;align=center;" vertex="1" parent="1">
          <mxGeometry x="205" y="310" width="75" height="30" as="geometry" />
        </mxCell>
        <mxCell id="xKOvJ4PTIkKJvOs1kT6k-19" style="edgeStyle=orthogonalEdgeStyle;rounded=0;orthogonalLoop=1;jettySize=auto;html=1;exitX=0.5;exitY=1;exitDx=0;exitDy=0;entryX=0.5;entryY=0;entryDx=0;entryDy=0;" edge="1" parent="1" source="xKOvJ4PTIkKJvOs1kT6k-9" target="xKOvJ4PTIkKJvOs1kT6k-1">
          <mxGeometry relative="1" as="geometry" />
        </mxCell>
        <mxCell id="xKOvJ4PTIkKJvOs1kT6k-9" value="&lt;font style=&quot;font-size: 8px;&quot;&gt;ORDEN COMPRA&lt;/font&gt;" style="shape=rhombus;perimeter=rhombusPerimeter;whiteSpace=wrap;html=1;align=center;" vertex="1" parent="1">
          <mxGeometry x="595" y="170" width="90" height="30" as="geometry" />
        </mxCell>
        <mxCell id="xKOvJ4PTIkKJvOs1kT6k-21" style="edgeStyle=orthogonalEdgeStyle;rounded=0;orthogonalLoop=1;jettySize=auto;html=1;exitX=0.5;exitY=0;exitDx=0;exitDy=0;entryX=1;entryY=0.5;entryDx=0;entryDy=0;" edge="1" parent="1" source="xKOvJ4PTIkKJvOs1kT6k-10" target="xKOvJ4PTIkKJvOs1kT6k-1">
          <mxGeometry relative="1" as="geometry" />
        </mxCell>
        <mxCell id="xKOvJ4PTIkKJvOs1kT6k-10" value="&lt;font style=&quot;font-size: 7px;&quot;&gt;FILTRA&lt;/font&gt;" style="shape=rhombus;perimeter=rhombusPerimeter;whiteSpace=wrap;html=1;align=center;" vertex="1" parent="1">
          <mxGeometry x="450" y="360" width="60" height="20" as="geometry" />
        </mxCell>
        <mxCell id="xKOvJ4PTIkKJvOs1kT6k-11" style="edgeStyle=orthogonalEdgeStyle;rounded=0;orthogonalLoop=1;jettySize=auto;html=1;exitX=0.5;exitY=1;exitDx=0;exitDy=0;" edge="1" parent="1" source="xKOvJ4PTIkKJvOs1kT6k-7" target="xKOvJ4PTIkKJvOs1kT6k-7">
          <mxGeometry relative="1" as="geometry" />
        </mxCell>
        <mxCell id="xKOvJ4PTIkKJvOs1kT6k-14" style="edgeStyle=orthogonalEdgeStyle;rounded=0;orthogonalLoop=1;jettySize=auto;html=1;exitX=0.5;exitY=1;exitDx=0;exitDy=0;" edge="1" parent="1" source="xKOvJ4PTIkKJvOs1kT6k-7" target="xKOvJ4PTIkKJvOs1kT6k-7">
          <mxGeometry relative="1" as="geometry" />
        </mxCell>
        <mxCell id="xKOvJ4PTIkKJvOs1kT6k-23" value="&lt;div&gt;DIRECCION&lt;/div&gt;" style="ellipse;whiteSpace=wrap;html=1;align=center;" vertex="1" parent="1">
          <mxGeometry x="230" y="100" width="85" height="30" as="geometry" />
        </mxCell>
        <mxCell id="xKOvJ4PTIkKJvOs1kT6k-33" style="edgeStyle=orthogonalEdgeStyle;rounded=0;orthogonalLoop=1;jettySize=auto;html=1;exitX=0;exitY=0.5;exitDx=0;exitDy=0;entryX=1;entryY=0.5;entryDx=0;entryDy=0;" edge="1" parent="1" source="xKOvJ4PTIkKJvOs1kT6k-25" target="xKOvJ4PTIkKJvOs1kT6k-3">
          <mxGeometry relative="1" as="geometry" />
        </mxCell>
        <mxCell id="xKOvJ4PTIkKJvOs1kT6k-25" value="ID_CLIENTE" style="ellipse;whiteSpace=wrap;html=1;align=center;" vertex="1" parent="1">
          <mxGeometry x="230" y="50" width="70" height="30" as="geometry" />
        </mxCell>
        <mxCell id="xKOvJ4PTIkKJvOs1kT6k-28" value="TELEFONO" style="ellipse;whiteSpace=wrap;html=1;align=center;" vertex="1" parent="1">
          <mxGeometry y="100" width="80" height="20" as="geometry" />
        </mxCell>
        <mxCell id="xKOvJ4PTIkKJvOs1kT6k-34" style="edgeStyle=orthogonalEdgeStyle;rounded=0;orthogonalLoop=1;jettySize=auto;html=1;exitX=0;exitY=0.5;exitDx=0;exitDy=0;entryX=0.92;entryY=1.075;entryDx=0;entryDy=0;entryPerimeter=0;" edge="1" parent="1" source="xKOvJ4PTIkKJvOs1kT6k-23" target="xKOvJ4PTIkKJvOs1kT6k-3">
          <mxGeometry relative="1" as="geometry" />
        </mxCell>
        <mxCell id="xKOvJ4PTIkKJvOs1kT6k-35" style="edgeStyle=orthogonalEdgeStyle;rounded=0;orthogonalLoop=1;jettySize=auto;html=1;exitX=1;exitY=0.5;exitDx=0;exitDy=0;entryX=0.19;entryY=1.05;entryDx=0;entryDy=0;entryPerimeter=0;" edge="1" parent="1" source="xKOvJ4PTIkKJvOs1kT6k-28" target="xKOvJ4PTIkKJvOs1kT6k-3">
          <mxGeometry relative="1" as="geometry" />
        </mxCell>
        <mxCell id="xKOvJ4PTIkKJvOs1kT6k-40" style="edgeStyle=orthogonalEdgeStyle;rounded=0;orthogonalLoop=1;jettySize=auto;html=1;exitX=0.5;exitY=0;exitDx=0;exitDy=0;entryX=0.25;entryY=1;entryDx=0;entryDy=0;" edge="1" parent="1" source="xKOvJ4PTIkKJvOs1kT6k-36" target="xKOvJ4PTIkKJvOs1kT6k-2">
          <mxGeometry relative="1" as="geometry" />
        </mxCell>
        <mxCell id="xKOvJ4PTIkKJvOs1kT6k-36" value="ID_PRODUCTIVO" style="ellipse;whiteSpace=wrap;html=1;align=center;" vertex="1" parent="1">
          <mxGeometry y="470" width="100" height="40" as="geometry" />
        </mxCell>
        <mxCell id="xKOvJ4PTIkKJvOs1kT6k-37" value="PRECIO" style="ellipse;whiteSpace=wrap;html=1;align=center;" vertex="1" parent="1">
          <mxGeometry x="110" y="490" width="70" height="30" as="geometry" />
        </mxCell>
        <mxCell id="xKOvJ4PTIkKJvOs1kT6k-41" style="edgeStyle=orthogonalEdgeStyle;rounded=0;orthogonalLoop=1;jettySize=auto;html=1;exitX=0.5;exitY=0;exitDx=0;exitDy=0;" edge="1" parent="1" source="xKOvJ4PTIkKJvOs1kT6k-38" target="xKOvJ4PTIkKJvOs1kT6k-2">
          <mxGeometry relative="1" as="geometry" />
        </mxCell>
        <mxCell id="xKOvJ4PTIkKJvOs1kT6k-38" value="DESCRIPCION" style="ellipse;whiteSpace=wrap;html=1;align=center;" vertex="1" parent="1">
          <mxGeometry x="50" y="520" width="100" height="40" as="geometry" />
        </mxCell>
        <mxCell id="xKOvJ4PTIkKJvOs1kT6k-39" style="edgeStyle=orthogonalEdgeStyle;rounded=0;orthogonalLoop=1;jettySize=auto;html=1;exitX=0.5;exitY=1;exitDx=0;exitDy=0;" edge="1" parent="1" source="xKOvJ4PTIkKJvOs1kT6k-36" target="xKOvJ4PTIkKJvOs1kT6k-36">
          <mxGeometry relative="1" as="geometry" />
        </mxCell>
        <mxCell id="xKOvJ4PTIkKJvOs1kT6k-42" style="edgeStyle=orthogonalEdgeStyle;rounded=0;orthogonalLoop=1;jettySize=auto;html=1;exitX=0.5;exitY=0;exitDx=0;exitDy=0;entryX=0.66;entryY=1;entryDx=0;entryDy=0;entryPerimeter=0;" edge="1" parent="1" source="xKOvJ4PTIkKJvOs1kT6k-37" target="xKOvJ4PTIkKJvOs1kT6k-2">
          <mxGeometry relative="1" as="geometry" />
        </mxCell>
        <mxCell id="xKOvJ4PTIkKJvOs1kT6k-43" value="ID_CATEGORIA" style="ellipse;whiteSpace=wrap;html=1;align=center;" vertex="1" parent="1">
          <mxGeometry x="-70" y="350" width="100" height="40" as="geometry" />
        </mxCell>
        <mxCell id="xKOvJ4PTIkKJvOs1kT6k-45" style="edgeStyle=orthogonalEdgeStyle;rounded=0;orthogonalLoop=1;jettySize=auto;html=1;exitX=0.5;exitY=0;exitDx=0;exitDy=0;entryX=1;entryY=0.5;entryDx=0;entryDy=0;" edge="1" parent="1" source="xKOvJ4PTIkKJvOs1kT6k-44" target="xKOvJ4PTIkKJvOs1kT6k-2">
          <mxGeometry relative="1" as="geometry" />
        </mxCell>
        <mxCell id="xKOvJ4PTIkKJvOs1kT6k-44" value="ID_PROVEEDOR" style="ellipse;whiteSpace=wrap;html=1;align=center;" vertex="1" parent="1">
          <mxGeometry x="170" y="440" width="100" height="40" as="geometry" />
        </mxCell>
        <mxCell id="xKOvJ4PTIkKJvOs1kT6k-46" style="edgeStyle=orthogonalEdgeStyle;rounded=0;orthogonalLoop=1;jettySize=auto;html=1;exitX=0.5;exitY=1;exitDx=0;exitDy=0;entryX=0.37;entryY=0;entryDx=0;entryDy=0;entryPerimeter=0;" edge="1" parent="1" source="xKOvJ4PTIkKJvOs1kT6k-43" target="xKOvJ4PTIkKJvOs1kT6k-2">
          <mxGeometry relative="1" as="geometry" />
        </mxCell>
        <mxCell id="xKOvJ4PTIkKJvOs1kT6k-49" style="edgeStyle=orthogonalEdgeStyle;rounded=0;orthogonalLoop=1;jettySize=auto;html=1;exitX=0.5;exitY=0;exitDx=0;exitDy=0;entryX=0.75;entryY=1;entryDx=0;entryDy=0;" edge="1" parent="1" source="xKOvJ4PTIkKJvOs1kT6k-47" target="xKOvJ4PTIkKJvOs1kT6k-4">
          <mxGeometry relative="1" as="geometry" />
        </mxCell>
        <mxCell id="xKOvJ4PTIkKJvOs1kT6k-47" value="DESCRIPCION" style="ellipse;whiteSpace=wrap;html=1;align=center;" vertex="1" parent="1">
          <mxGeometry x="710" y="440" width="100" height="40" as="geometry" />
        </mxCell>
        <mxCell id="xKOvJ4PTIkKJvOs1kT6k-48" value="ID_CATEGORIA" style="ellipse;whiteSpace=wrap;html=1;align=center;" vertex="1" parent="1">
          <mxGeometry x="530" y="440" width="100" height="40" as="geometry" />
        </mxCell>
        <mxCell id="xKOvJ4PTIkKJvOs1kT6k-50" style="edgeStyle=orthogonalEdgeStyle;rounded=0;orthogonalLoop=1;jettySize=auto;html=1;exitX=0.5;exitY=0;exitDx=0;exitDy=0;entryX=0.33;entryY=1.075;entryDx=0;entryDy=0;entryPerimeter=0;" edge="1" parent="1" source="xKOvJ4PTIkKJvOs1kT6k-48" target="xKOvJ4PTIkKJvOs1kT6k-4">
          <mxGeometry relative="1" as="geometry" />
        </mxCell>
        <mxCell id="xKOvJ4PTIkKJvOs1kT6k-54" style="edgeStyle=orthogonalEdgeStyle;rounded=0;orthogonalLoop=1;jettySize=auto;html=1;exitX=0;exitY=0.5;exitDx=0;exitDy=0;entryX=0.75;entryY=0;entryDx=0;entryDy=0;" edge="1" parent="1" source="xKOvJ4PTIkKJvOs1kT6k-51" target="xKOvJ4PTIkKJvOs1kT6k-5">
          <mxGeometry relative="1" as="geometry" />
        </mxCell>
        <mxCell id="xKOvJ4PTIkKJvOs1kT6k-51" value="ID_FACTURA" style="ellipse;whiteSpace=wrap;html=1;align=center;" vertex="1" parent="1">
          <mxGeometry x="740" y="10" width="80" height="30" as="geometry" />
        </mxCell>
        <mxCell id="xKOvJ4PTIkKJvOs1kT6k-55" style="edgeStyle=orthogonalEdgeStyle;rounded=0;orthogonalLoop=1;jettySize=auto;html=1;exitX=0;exitY=0;exitDx=0;exitDy=0;entryX=1;entryY=0.5;entryDx=0;entryDy=0;" edge="1" parent="1" source="xKOvJ4PTIkKJvOs1kT6k-52" target="xKOvJ4PTIkKJvOs1kT6k-5">
          <mxGeometry relative="1" as="geometry" />
        </mxCell>
        <mxCell id="xKOvJ4PTIkKJvOs1kT6k-52" value="FECHA" style="ellipse;whiteSpace=wrap;html=1;align=center;" vertex="1" parent="1">
          <mxGeometry x="740" y="70" width="70" height="20" as="geometry" />
        </mxCell>
        <mxCell id="xKOvJ4PTIkKJvOs1kT6k-56" style="edgeStyle=orthogonalEdgeStyle;rounded=0;orthogonalLoop=1;jettySize=auto;html=1;exitX=0.5;exitY=0;exitDx=0;exitDy=0;entryX=0.75;entryY=1;entryDx=0;entryDy=0;" edge="1" parent="1" source="xKOvJ4PTIkKJvOs1kT6k-53" target="xKOvJ4PTIkKJvOs1kT6k-5">
          <mxGeometry relative="1" as="geometry" />
        </mxCell>
        <mxCell id="xKOvJ4PTIkKJvOs1kT6k-53" value="VALOR" style="ellipse;whiteSpace=wrap;html=1;align=center;" vertex="1" parent="1">
          <mxGeometry x="660" y="100" width="60" height="20" as="geometry" />
        </mxCell>
        <mxCell id="xKOvJ4PTIkKJvOs1kT6k-61" style="edgeStyle=orthogonalEdgeStyle;rounded=0;orthogonalLoop=1;jettySize=auto;html=1;exitX=0.5;exitY=0;exitDx=0;exitDy=0;entryX=0.25;entryY=1;entryDx=0;entryDy=0;" edge="1" parent="1" source="xKOvJ4PTIkKJvOs1kT6k-57" target="xKOvJ4PTIkKJvOs1kT6k-5">
          <mxGeometry relative="1" as="geometry" />
        </mxCell>
        <mxCell id="xKOvJ4PTIkKJvOs1kT6k-57" value="ID_PRODUCTO" style="ellipse;whiteSpace=wrap;html=1;align=center;" vertex="1" parent="1">
          <mxGeometry x="510" y="100" width="90" height="35" as="geometry" />
        </mxCell>
        <mxCell id="xKOvJ4PTIkKJvOs1kT6k-60" style="edgeStyle=orthogonalEdgeStyle;rounded=0;orthogonalLoop=1;jettySize=auto;html=1;exitX=0.5;exitY=0;exitDx=0;exitDy=0;entryX=0;entryY=0.25;entryDx=0;entryDy=0;" edge="1" parent="1" source="xKOvJ4PTIkKJvOs1kT6k-58" target="xKOvJ4PTIkKJvOs1kT6k-5">
          <mxGeometry relative="1" as="geometry" />
        </mxCell>
        <mxCell id="xKOvJ4PTIkKJvOs1kT6k-58" value="CANTIDAD" style="ellipse;whiteSpace=wrap;html=1;align=center;" vertex="1" parent="1">
          <mxGeometry x="480" y="45" width="70" height="30" as="geometry" />
        </mxCell>
        <mxCell id="xKOvJ4PTIkKJvOs1kT6k-68" style="edgeStyle=orthogonalEdgeStyle;rounded=0;orthogonalLoop=1;jettySize=auto;html=1;exitX=0.5;exitY=0;exitDx=0;exitDy=0;" edge="1" parent="1" source="xKOvJ4PTIkKJvOs1kT6k-62">
          <mxGeometry relative="1" as="geometry">
            <mxPoint x="340" y="250" as="targetPoint" />
          </mxGeometry>
        </mxCell>
        <mxCell id="xKOvJ4PTIkKJvOs1kT6k-62" value="&lt;font style=&quot;font-size: 10px;&quot;&gt;ID_PEDIDO&lt;/font&gt;" style="ellipse;whiteSpace=wrap;html=1;align=center;" vertex="1" parent="1">
          <mxGeometry x="290" y="310" width="80" height="20" as="geometry" />
        </mxCell>
        <mxCell id="xKOvJ4PTIkKJvOs1kT6k-64" value="&lt;font style=&quot;font-size: 10px;&quot;&gt;ID_PRODUCTO&lt;/font&gt;" style="ellipse;whiteSpace=wrap;html=1;align=center;" vertex="1" parent="1">
          <mxGeometry x="350" y="340" width="90" height="20" as="geometry" />
        </mxCell>
        <mxCell id="xKOvJ4PTIkKJvOs1kT6k-66" value="&lt;font style=&quot;font-size: 10px;&quot;&gt;CANTIDAD&lt;/font&gt;" style="ellipse;whiteSpace=wrap;html=1;align=center;" vertex="1" parent="1">
          <mxGeometry x="410" y="290" width="70" height="20" as="geometry" />
        </mxCell>
        <mxCell id="xKOvJ4PTIkKJvOs1kT6k-67" style="edgeStyle=orthogonalEdgeStyle;rounded=0;orthogonalLoop=1;jettySize=auto;html=1;exitX=0.5;exitY=0;exitDx=0;exitDy=0;entryX=0.904;entryY=1.043;entryDx=0;entryDy=0;entryPerimeter=0;" edge="1" parent="1" source="xKOvJ4PTIkKJvOs1kT6k-66" target="xKOvJ4PTIkKJvOs1kT6k-1">
          <mxGeometry relative="1" as="geometry" />
        </mxCell>
        <mxCell id="xKOvJ4PTIkKJvOs1kT6k-69" style="edgeStyle=orthogonalEdgeStyle;rounded=0;orthogonalLoop=1;jettySize=auto;html=1;exitX=0.5;exitY=0;exitDx=0;exitDy=0;entryX=0.657;entryY=1.013;entryDx=0;entryDy=0;entryPerimeter=0;" edge="1" parent="1" source="xKOvJ4PTIkKJvOs1kT6k-64" target="xKOvJ4PTIkKJvOs1kT6k-1">
          <mxGeometry relative="1" as="geometry" />
        </mxCell>
        <mxCell id="xKOvJ4PTIkKJvOs1kT6k-70" value="1:N" style="text;html=1;align=center;verticalAlign=middle;whiteSpace=wrap;rounded=0;rotation=30;" vertex="1" parent="1">
          <mxGeometry x="205" y="180" width="30" height="20" as="geometry" />
        </mxCell>
        <mxCell id="xKOvJ4PTIkKJvOs1kT6k-71" value="1:N" style="text;html=1;align=center;verticalAlign=middle;whiteSpace=wrap;rounded=0;rotation=-26;" vertex="1" parent="1">
          <mxGeometry x="210" y="300" width="30" height="20" as="geometry" />
        </mxCell>
        <mxCell id="xKOvJ4PTIkKJvOs1kT6k-72" value="1:N" style="text;html=1;align=center;verticalAlign=middle;whiteSpace=wrap;rounded=0;rotation=25;" vertex="1" parent="1">
          <mxGeometry x="480" y="340" width="30" height="20" as="geometry" />
        </mxCell>
        <mxCell id="xKOvJ4PTIkKJvOs1kT6k-74" value="1:1" style="text;html=1;align=center;verticalAlign=middle;whiteSpace=wrap;rounded=0;rotation=30;" vertex="1" parent="1">
          <mxGeometry x="685" y="170" width="30" height="20" as="geometry" />
        </mxCell>
        <mxCell id="kBq6q4IEvlSYF3eV2m1H-3" style="edgeStyle=orthogonalEdgeStyle;rounded=0;orthogonalLoop=1;jettySize=auto;html=1;exitX=0.5;exitY=1;exitDx=0;exitDy=0;" edge="1" parent="1" source="kBq6q4IEvlSYF3eV2m1H-2" target="xKOvJ4PTIkKJvOs1kT6k-3">
          <mxGeometry relative="1" as="geometry" />
        </mxCell>
        <mxCell id="kBq6q4IEvlSYF3eV2m1H-5" value="" style="edgeStyle=orthogonalEdgeStyle;rounded=0;orthogonalLoop=1;jettySize=auto;html=1;" edge="1" parent="1" source="kBq6q4IEvlSYF3eV2m1H-2" target="xKOvJ4PTIkKJvOs1kT6k-3">
          <mxGeometry relative="1" as="geometry" />
        </mxCell>
        <mxCell id="kBq6q4IEvlSYF3eV2m1H-2" value="&lt;div&gt;Nombre&lt;/div&gt;" style="ellipse;whiteSpace=wrap;html=1;align=center;" vertex="1" parent="1">
          <mxGeometry x="110" y="-70" width="100" height="40" as="geometry" />
        </mxCell>
        <mxCell id="kBq6q4IEvlSYF3eV2m1H-6" value="" style="endArrow=none;html=1;rounded=0;exitX=1;exitY=1;exitDx=0;exitDy=0;entryX=0.883;entryY=-0.087;entryDx=0;entryDy=0;entryPerimeter=0;" edge="1" parent="1" source="kBq6q4IEvlSYF3eV2m1H-2" target="xKOvJ4PTIkKJvOs1kT6k-3">
          <mxGeometry relative="1" as="geometry">
            <mxPoint x="230" as="sourcePoint" />
            <mxPoint x="390" as="targetPoint" />
          </mxGeometry>
        </mxCell>
      </root>
    </mxGraphModel>
  </diagram>
</mxfile>
